<svg xmlns="http://www.w3.org/2000/svg"
     width="24"
     height="24"
     viewBox="0 0 24 24"
     fill="none"
     stroke="currentColor"
     stroke-width="2"
     stroke-linecap="round"
     stroke-linejoin="round"
     aria-hidden="true">
  <path d="M10.2 2.7a2 2 0 0 1 3.6 0l.3.8a2 2 0 0 0 2.5 1.2l.8-.3a2 2 0 0 1 2.6 2.6l-.3.8a2 2 0 0 0 1.2 2.5l.8.3a2 2 0 0 1 0 3.6l-.8.3a2 2 0 0 0-1.2 2.5l.3.8a2 2 0 0 1-2.6 2.6l-.8-.3a2 2 0 0 0-2.5 1.2l-.3.8a2 2 0 0 1-3.6 0l-.3-.8a2 2 0 0 0-2.5-1.2l-.8.3a2 2 0 0 1-2.6-2.6l.3-.8a2 2 0 0 0-1.2-2.5l-.8-.3a2 2 0 0 1 0-3.6l.8-.3a2 2 0 0 0 1.2-2.5l-.3-.8a2 2 0 0 1 2.6-2.6l.8.3a2 2 0 0 0 2.5-1.2z"/>
  <circle cx="12" cy="12" r="3.2"/>
</svg>
